<?xml version="1.0" encoding="UTF-8" standalone="no"?>
<!-- Generator: Adobe Illustrator 16.0.0, SVG Export Plug-In . SVG Version: 6.00 Build 0)  -->

<svg
   xmlns:dc="http://purl.org/dc/elements/1.1/"
   xmlns:cc="http://creativecommons.org/ns#"
   xmlns:rdf="http://www.w3.org/1999/02/22-rdf-syntax-ns#"
   xmlns:svg="http://www.w3.org/2000/svg"
   xmlns="http://www.w3.org/2000/svg"
   xmlns:sodipodi="http://sodipodi.sourceforge.net/DTD/sodipodi-0.dtd"
   xmlns:inkscape="http://www.inkscape.org/namespaces/inkscape"
   version="1.0"
   id="Layer_1"
   x="0px"
   y="0px"
   width="410"
   height="228"
   viewBox="0 0 410 227.99999"
   enable-background="new 0 0 409.931 227.139"
   xml:space="preserve"
   inkscape:version="0.48.4 r9939"
   sodipodi:docname="clarity_logo_betta.svg"><metadata
   id="metadata71"><rdf:RDF><cc:Work
       rdf:about=""><dc:format>image/svg+xml</dc:format><dc:type
         rdf:resource="http://purl.org/dc/dcmitype/StillImage" /></cc:Work></rdf:RDF></metadata><defs
   id="defs69" /><sodipodi:namedview
   pagecolor="#ffffff"
   bordercolor="#666666"
   borderopacity="1"
   objecttolerance="10"
   gridtolerance="10"
   guidetolerance="10"
   inkscape:pageopacity="0"
   inkscape:pageshadow="2"
   inkscape:window-width="1216"
   inkscape:window-height="480"
   id="namedview67"
   showgrid="false"
   fit-margin-top="0"
   fit-margin-left="0"
   fit-margin-right="0"
   fit-margin-bottom="0"
   inkscape:zoom="0.69767839"
   inkscape:cx="33.682962"
   inkscape:cy="113.56868"
   inkscape:window-x="0"
   inkscape:window-y="0"
   inkscape:window-maximized="0"
   inkscape:current-layer="Layer_1" />
<g
   id="g3"
   transform="translate(0.03441,0.4309401)">
	<g
   id="layer1"
   transform="translate(300.07142,-54.762642)"
   label="Layer 1"
   groupmode="layer">
		<g
   id="g4365"
   transform="translate(223.81976,-210.25768)">
			<path
   id="path4361"
   connector-curvature="0"
   d="m -371.05,491.998 c -10.396,-0.818 -18.737,-3.061 -27.242,-7.328 -17.814,-8.936 -30.615,-25.291 -34.942,-44.648 -1.354,-6.057 -1.78,-10.338 -1.795,-18.002 -0.023,-12.859 1.899,-21.953 6.729,-31.821 6.8,-13.896 16.944,-23.755 32.144,-31.237 10.528,-5.182 20.146,-7.346 32.574,-7.328 12.166,0.018 21.973,2.185 32.654,7.218 8.935,4.21 18.562,11.191 23.868,17.31 l 1.627,1.876 -1.024,0.979 c -2.37,2.267 -14.374,13.636 -15.267,14.458 l -0.971,0.896 -2.51,-2.41 c -11.04,-10.599 -23.244,-16.088 -36.898,-16.598 -8.824,-0.329 -16.314,1.202 -23.497,4.805 -8.624,4.324 -17.378,13.351 -21.074,21.73 -1.218,2.762 -2.853,8.08 -3.423,11.137 -0.816,4.381 -0.731,13.793 0.166,18.285 2.46,12.32 8.275,21.566 17.912,28.48 11.473,8.232 27.676,10.854 42.269,6.84 8.627,-2.371 14.689,-6.035 24.124,-14.576 l 2.968,-2.688 1.437,1.477 c 6.716,6.904 15.094,15.799 15.073,16.004 -0.013,0.139 -1.404,1.506 -3.091,3.039 -17.329,15.729 -31.704,21.779 -52.834,22.234 -3.154,0.069 -7.192,0.008 -8.977,-0.132 l 0,0 z"
   inkscape:connector-curvature="0"
   style="fill:#ffffff" />
			<path
   id="path4347"
   connector-curvature="0"
   d="m -523.891,415.685 c 0,-7.641 0.105,-11.764 0.301,-11.764 0.166,0 0.302,0.137 0.302,0.303 0,0.199 12.618,0.301 37.25,0.301 h 37.249 v 11.16 11.16 h -37.249 c -24.632,0 -37.25,0.102 -37.25,0.301 0,0.166 -0.136,0.303 -0.302,0.303 -0.196,0 -0.301,-4.123 -0.301,-11.764 z"
   inkscape:connector-curvature="0"
   style="fill:#ffffff" />
			<path
   id="path4343"
   connector-curvature="0"
   d="m -459.934,342.941 -26.294,-26.297 7.825,-7.824 7.824,-7.824 26.277,26.283 c 14.452,14.456 26.276,26.385 26.276,26.507 0,0.271 -15.155,15.451 -15.426,15.451 -0.102,0 -12.02,-11.833 -26.482,-26.296 l 0,0 z"
   inkscape:connector-curvature="0"
   style="fill:#ffffff" />
			<path
   id="path4341"
   connector-curvature="0"
   d="m -378.211,303.333 v -37.249 h 11.16 11.159 v 37.249 37.25 h -11.159 -11.16 v -37.25 z"
   inkscape:connector-curvature="0"
   style="fill:#ffffff" />
			<path
   id="path3011"
   connector-curvature="0"
   d="m -373.008,265.557 c 3.276,-0.049 8.638,-0.049 11.913,0 3.277,0.049 0.596,0.088 -5.956,0.088 -6.553,0 -9.234,-0.039 -5.957,-0.088 z"
   inkscape:connector-curvature="0"
   style="fill:#ffffff" />
		</g>
	</g>
	<path
   d="m 151.628,202.435 41.334,-26.668 23.666,-71.551 -79,24.885 -22.668,41 c 0,0 3.643,12.633 9.53,18.096 5.887,5.463 14.436,13.356 27.138,14.238"
   id="path12"
   inkscape:connector-curvature="0"
   style="fill:#435daa" />
	<path
   stroke-miterlimit="10"
   d="M 151.628,202.435"
   id="path14"
   inkscape:connector-curvature="0"
   style="fill:none;stroke:#ffffff;stroke-miterlimit:10" />
	<path
   d="M 99.797,196.659 88.628,216.37 h 31.182 c 0,0 -9.086,-6.441 -12.134,-9.855 -3.048,-3.414 -7.879,-9.856 -7.879,-9.856 z"
   id="path16"
   inkscape:connector-curvature="0"
   style="fill:#435daa" />
	<polygon
   points="216.628,104.216 208.791,127.91 229.874,150.603 235.624,136.353 322.624,147.103 318.124,142.353 313.374,124.603 346.124,129.603 356.374,108.353 289.374,88.603 242.124,96.353 "
   id="polygon18"
   style="fill:#4a3e91" />
	<polygon
   points="248.847,95.25 216.628,104.216 210.874,86.613 216.628,73.353 240.874,61.353 286.82,89.021 "
   id="polygon20"
   style="fill:#3270b7" />
	<polygon
   points="216.628,73.353 210.874,86.613 194.874,86.613 194.874,73.353 207.374,62.603 238.349,62.603 "
   id="polygon22"
   style="fill:#35498a" />
	<polygon
   points="362.624,132.103 313.374,124.603 318.124,142.353 322.624,147.103 334.374,158.353 353.374,163.353 "
   id="polygon24"
   style="fill:#0092bf" />
	<polygon
   points="322.624,147.103 235.624,136.353 229.874,150.603 224.374,164.603 263.624,185.853 334.374,158.353 "
   id="polygon26"
   style="fill:#435daa" />
	<polygon
   points="355.291,156.876 380.374,153.325 401.124,143.978 409.931,130.103 368.124,107.103 356.374,108.353 346.13,129.591 362.624,132.103 "
   id="polygon28"
   style="fill:#0e81c5" />
	<ellipse
   cx="383.703"
   cy="131.159"
   rx="7.5879998"
   ry="6.125"
   id="ellipse30"
   sodipodi:cx="383.703"
   sodipodi:cy="131.159"
   sodipodi:rx="7.5879998"
   sodipodi:ry="6.125"
   style="fill:#abdff0"
   d="m 391.291,131.159 c 0,3.38274 -3.39726,6.125 -7.588,6.125 -4.19073,0 -7.588,-2.74226 -7.588,-6.125 0,-3.38275 3.39727,-6.125 7.588,-6.125 4.19074,0 7.588,2.74225 7.588,6.125 z" />
	<ellipse
   cx="383.90701"
   cy="131.097"
   rx="4.3330002"
   ry="3.7420001"
   id="ellipse32"
   sodipodi:cx="383.90701"
   sodipodi:cy="131.097"
   sodipodi:rx="4.3330002"
   sodipodi:ry="3.7420001"
   d="m 388.24001,131.097 c 0,2.06665 -1.93995,3.742 -4.333,3.742 -2.39305,0 -4.333,-1.67535 -4.333,-3.742 0,-2.06665 1.93995,-3.742 4.333,-3.742 2.39305,0 4.333,1.67535 4.333,3.742 z" />
	<ellipse
   cx="381.25699"
   cy="128.254"
   rx="2.0829999"
   ry="1.847"
   id="ellipse34"
   sodipodi:cx="381.25699"
   sodipodi:cy="128.254"
   sodipodi:rx="2.0829999"
   sodipodi:ry="1.847"
   style="fill:#ffffff"
   d="m 383.33999,128.254 c 0,1.02007 -0.93259,1.847 -2.083,1.847 -1.15041,0 -2.083,-0.82693 -2.083,-1.847 0,-1.02007 0.93259,-1.847 2.083,-1.847 1.15041,0 2.083,0.82693 2.083,1.847 z" />
	<g
   id="layer1_1_"
   transform="translate(300.07142,-54.762642)"
   label="Layer 1"
   groupmode="layer">
		<g
   id="g4365_1_"
   transform="translate(223.81976,-210.25768)">
			<path
   id="path4361_1_"
   connector-curvature="0"
   d="m -371.05,491.498 c -10.396,-0.818 -18.737,-3.061 -27.242,-7.328 -17.814,-8.936 -30.615,-25.291 -34.942,-44.648 -1.354,-6.057 -1.78,-10.338 -1.795,-18.002 -0.023,-12.859 1.899,-21.953 6.729,-31.821 6.8,-13.896 16.944,-23.755 32.144,-31.237 10.528,-5.182 20.146,-7.346 32.574,-7.328 12.166,0.018 21.973,2.185 32.654,7.218 8.935,4.21 18.562,11.191 23.868,17.31 l 1.627,1.876 -1.024,0.979 c -2.37,2.267 -14.374,13.636 -15.267,14.458 l -0.971,0.896 -2.51,-2.41 c -11.04,-10.599 -23.244,-16.088 -36.898,-16.598 -8.824,-0.329 -16.314,1.202 -23.497,4.805 -8.624,4.324 -17.378,13.351 -21.074,21.73 -1.218,2.762 -2.853,8.08 -3.423,11.137 -0.816,4.381 -0.731,13.793 0.166,18.285 2.46,12.32 8.275,21.566 17.912,28.48 11.473,8.232 27.676,10.854 42.269,6.84 8.627,-2.371 14.689,-6.035 24.124,-14.576 l 2.968,-2.688 1.437,1.477 c 6.716,6.904 15.094,15.799 15.073,16.004 -0.013,0.139 -1.404,1.506 -3.091,3.039 -17.329,15.729 -31.704,21.779 -52.834,22.234 -3.154,0.069 -7.192,0.008 -8.977,-0.132 l 0,0 z"
   inkscape:connector-curvature="0"
   style="fill:#ffffff" />
			<path
   id="path4347_1_"
   connector-curvature="0"
   d="m -523.891,415.185 c 0,-7.641 0.105,-11.764 0.301,-11.764 0.166,0 0.302,0.137 0.302,0.303 0,0.199 12.618,0.301 37.25,0.301 h 37.249 v 11.16 11.16 h -37.249 c -24.632,0 -37.25,0.102 -37.25,0.301 0,0.166 -0.136,0.303 -0.302,0.303 -0.196,0 -0.301,-4.123 -0.301,-11.764 z"
   inkscape:connector-curvature="0"
   style="fill:#ffffff" />
			<path
   id="path4343_1_"
   connector-curvature="0"
   d="m -459.934,342.441 -26.294,-26.297 7.825,-7.824 7.824,-7.824 26.277,26.283 c 14.452,14.456 26.276,26.385 26.276,26.507 0,0.271 -15.155,15.451 -15.426,15.451 -0.102,0 -12.02,-11.833 -26.482,-26.296 l 0,0 z"
   inkscape:connector-curvature="0"
   style="fill:#ffffff" />
			<path
   id="path4341_1_"
   connector-curvature="0"
   d="m -378.211,302.833 v -37.249 h 11.16 11.159 v 37.249 37.25 h -11.159 -11.16 v -37.25 z"
   inkscape:connector-curvature="0"
   style="fill:#ffffff" />
			<path
   id="path3011_1_"
   connector-curvature="0"
   d="m -373.008,265.057 c 3.276,-0.049 8.638,-0.049 11.913,0 3.277,0.049 0.596,0.088 -5.956,0.088 -6.553,0 -9.234,-0.039 -5.957,-0.088 z"
   inkscape:connector-curvature="0"
   style="fill:#ffffff" />
		</g>
	</g>
	<path
   d="m 151.628,201.935 41.334,-26.668 23.666,-71.551 -79,24.885 -22.668,41 c 0,0 3.643,12.633 9.53,18.096 5.887,5.463 14.436,13.356 27.138,14.238"
   id="path43"
   inkscape:connector-curvature="0"
   style="fill:#435daa" />
	<path
   stroke-miterlimit="10"
   d="M 151.628,201.935"
   id="path45"
   inkscape:connector-curvature="0"
   style="fill:none;stroke:#ffffff;stroke-miterlimit:10" />
	<path
   d="M 99.797,196.159 88.628,215.87 h 31.182 c 0,0 -9.086,-6.441 -12.134,-9.855 -3.048,-3.414 -7.879,-9.856 -7.879,-9.856 z"
   id="path47"
   inkscape:connector-curvature="0"
   style="fill:#435daa" />
	<polygon
   points="216.628,103.716 208.791,127.41 229.874,150.103 235.624,135.853 322.624,146.603 318.124,141.853 313.374,124.103 346.124,129.103 356.374,107.853 289.374,88.103 242.124,95.853 "
   id="polygon49"
   style="fill:#4a3e91" />
	<polygon
   points="248.847,94.75 216.628,103.716 210.874,86.113 216.628,72.853 240.874,60.853 286.82,88.521 "
   id="polygon51"
   style="fill:#3270b7" />
	<polygon
   points="216.628,72.853 210.874,86.113 194.874,86.113 194.874,72.853 207.374,62.103 238.349,62.103 "
   id="polygon53"
   style="fill:#35498a" />
	<polygon
   points="362.624,131.603 313.374,124.103 318.124,141.853 322.624,146.603 334.374,157.853 353.374,162.853 "
   id="polygon55"
   style="fill:#0092bf" />
	<polygon
   points="322.624,146.603 235.624,135.853 229.874,150.103 224.374,164.103 263.624,185.353 334.374,157.853 "
   id="polygon57"
   style="fill:#435daa" />
	<polygon
   points="355.291,156.376 380.374,152.825 401.124,143.478 409.931,129.603 368.124,106.603 356.374,107.853 346.13,129.091 362.624,131.603 "
   id="polygon59"
   style="fill:#0e81c5" />
	<ellipse
   cx="383.703"
   cy="130.659"
   rx="7.5879998"
   ry="6.125"
   id="ellipse61"
   sodipodi:cx="383.703"
   sodipodi:cy="130.659"
   sodipodi:rx="7.5879998"
   sodipodi:ry="6.125"
   style="fill:#abdff0"
   d="m 391.291,130.659 c 0,3.38274 -3.39726,6.125 -7.588,6.125 -4.19073,0 -7.588,-2.74226 -7.588,-6.125 0,-3.38275 3.39727,-6.125 7.588,-6.125 4.19074,0 7.588,2.74225 7.588,6.125 z" />
	<ellipse
   cx="383.90701"
   cy="130.597"
   rx="4.3330002"
   ry="3.7420001"
   id="ellipse63"
   sodipodi:cx="383.90701"
   sodipodi:cy="130.597"
   sodipodi:rx="4.3330002"
   sodipodi:ry="3.7420001"
   d="m 388.24001,130.597 c 0,2.06665 -1.93995,3.742 -4.333,3.742 -2.39305,0 -4.333,-1.67535 -4.333,-3.742 0,-2.06665 1.93995,-3.742 4.333,-3.742 2.39305,0 4.333,1.67535 4.333,3.742 z" />
	<ellipse
   cx="381.25699"
   cy="127.754"
   rx="2.0829999"
   ry="1.847"
   id="ellipse65"
   sodipodi:cx="381.25699"
   sodipodi:cy="127.754"
   sodipodi:rx="2.0829999"
   sodipodi:ry="1.847"
   style="fill:#ffffff"
   d="m 383.33999,127.754 c 0,1.02007 -0.93259,1.847 -2.083,1.847 -1.15041,0 -2.083,-0.82693 -2.083,-1.847 0,-1.02007 0.93259,-1.847 2.083,-1.847 1.15041,0 2.083,0.82693 2.083,1.847 z" />
</g>
</svg>