<?xml version="1.0" encoding="utf-8"?>
<!-- Generator: Adobe Illustrator 15.0.2, SVG Export Plug-In . SVG Version: 6.00 Build 0)  -->
<!DOCTYPE svg PUBLIC "-//W3C//DTD SVG 1.1//EN" "http://www.w3.org/Graphics/SVG/1.1/DTD/svg11.dtd">
<svg version="1.1" id="Layer_1" xmlns="http://www.w3.org/2000/svg" xmlns:xlink="http://www.w3.org/1999/xlink" x="0px" y="0px"
	 width="100px" height="100px" viewBox="0 0 100 100" enable-background="new 0 0 100 100" xml:space="preserve">
<path fill="#FFFFFF" d="M50,0C22.386,0,0,22.385,0,50c0,27.614,22.386,50,50,50c27.613,0,50-22.387,50-50C100,22.385,77.613,0,50,0z
	 M66.523,75.438H30.699v-4.711l15.996-16.312c3.867-3.915,6.438-7.061,7.717-9.44c1.277-2.378,1.916-4.529,1.916-6.451
	c0-1.992-0.663-3.639-1.986-4.939c-1.324-1.301-3.029-1.951-5.115-1.951c-2.109,0-3.867,0.786-5.273,2.355
	c-1.406,1.57-2.157,3.704-2.25,6.398h-9.598c0.258-5.578,2.009-9.967,5.256-13.166c3.246-3.199,7.412-4.799,12.498-4.799
	c3.141,0,5.911,0.663,8.314,1.986c2.402,1.324,4.324,3.234,5.766,5.73s2.162,5.033,2.162,7.611c0,3.071-0.875,6.375-2.621,9.914
	c-1.747,3.539-4.941,7.723-9.584,12.551l-5.805,6.117h18.432V75.438z"/>
</svg>
