<?xml version="1.0" encoding="utf-8"?>
<!-- Generator: Adobe Illustrator 15.0.2, SVG Export Plug-In . SVG Version: 6.00 Build 0)  -->
<!DOCTYPE svg PUBLIC "-//W3C//DTD SVG 1.1//EN" "http://www.w3.org/Graphics/SVG/1.1/DTD/svg11.dtd">
<svg version="1.1" id="Layer_1" xmlns="http://www.w3.org/2000/svg" xmlns:xlink="http://www.w3.org/1999/xlink" x="0px" y="0px"
	 width="99.999px" height="100px" viewBox="0 0 99.999 100" enable-background="new 0 0 99.999 100" xml:space="preserve">
<path fill="#FFFFFF" d="M49.999,0C22.386,0,0,22.385,0,50c0,27.614,22.386,50,49.999,50c27.614,0,50-22.387,50-50
	C99.999,22.385,77.613,0,49.999,0z M61.643,73.076c-3.423,3.223-7.782,4.834-13.078,4.834c-5.016,0-9.105-1.518-12.27-4.553
	s-4.899-7.166-5.203-12.393h9.738c0.422,2.672,1.354,4.658,2.795,5.959s3.264,1.951,5.467,1.951c2.297,0,4.201-0.738,5.713-2.215
	s2.268-3.281,2.268-5.414c0-2.344-1.02-4.324-3.059-5.941s-4.98-2.449-8.824-2.496v-8.438c2.367-0.188,4.131-0.557,5.291-1.107
	c1.16-0.55,2.062-1.306,2.707-2.268c0.645-0.961,0.967-1.98,0.967-3.059c0-1.406-0.492-2.572-1.477-3.498
	c-0.984-0.926-2.273-1.389-3.867-1.389c-1.406,0-2.685,0.428-3.832,1.283c-1.148,0.856-1.934,1.963-2.355,3.322h-9.457
	c0.492-3.82,1.863-6.891,4.113-9.211c3.141-3.234,7.089-4.852,11.848-4.852c4.241,0,7.799,1.348,10.67,4.043
	c2.87,2.695,4.307,5.895,4.307,9.598c0,2.297-0.628,4.395-1.881,6.293c-1.254,1.898-3.076,3.434-5.467,4.605
	c3.141,0.938,5.595,2.572,7.365,4.905c1.77,2.332,2.654,5.08,2.654,8.244C66.775,65.922,65.064,69.854,61.643,73.076z"/>
</svg>
